<svg data-v-fde0c5aa="" xmlns="http://www.w3.org/2000/svg" viewBox="0 0 300 300" class="iconLeft"><!----><defs data-v-fde0c5aa=""><!----></defs><rect data-v-fde0c5aa="" fill="transparent" x="0" y="0" width="300px" height="300px" class="logo-background-square"></rect><defs data-v-fde0c5aa=""><!----></defs><g data-v-fde0c5aa="" id="ac41833f-d874-4694-b2fa-584a34a2b2d9" fill="#000000" transform="matrix(2.5677613540679602,0,0,2.5677613540679602,99.43788642985727,126.87730871276104)"><path d="M2.74 6.54L2.74 4.46L5.63 4.46L5.63 4.46Q6.85 4.50 6.88 5.26L6.88 5.26L6.88 5.26Q6.85 6.51 5.61 6.54L5.61 6.54L2.74 6.54ZM2.74 11.07L2.74 8.57L6.11 8.57L6.11 8.57Q7.53 8.61 7.57 9.59L7.57 9.59L7.57 9.59Q7.53 11.05 6.09 11.07L6.09 11.07L2.74 11.07ZM8.86 5.44L8.86 5.44L8.86 5.44Q8.72 2.58 6.13 2.43L6.13 2.43L0.68 2.43L0.68 12.67L6.45 12.68L6.45 12.68Q9.41 12.51 9.55 9.61L9.55 9.61L9.55 9.61Q9.47 8.17 8.12 7.27L8.12 7.27L8.12 7.27Q8.81 6.81 8.86 5.44ZM12.32 7.82L11.57 6.66L11.57 6.66Q12.87 5.84 14.57 5.84L14.57 5.84L14.57 5.84Q15.80 5.84 16.52 6.52L16.52 6.52L16.52 6.52Q17.24 7.21 17.24 8.57L17.24 8.57L17.24 12.67L15.33 12.67L15.33 12.13L15.33 12.13Q14.49 12.67 13.82 12.67L13.82 12.67L13.82 12.67Q12.46 12.67 11.77 12.09L11.77 12.09L11.77 12.09Q11.09 11.51 11.09 10.49L11.09 10.49L11.09 10.49Q11.09 9.53 11.73 8.78L11.73 8.78L11.73 8.78Q12.38 8.03 13.82 8.03L13.82 8.03L13.82 8.03Q14.49 8.03 15.33 8.44L15.33 8.44L15.33 8.23L15.33 8.23Q15.31 7.48 14.23 7.41L14.23 7.41L14.23 7.41Q13.00 7.41 12.32 7.82L12.32 7.82ZM15.33 10.62L15.33 10.62L15.33 9.85L15.33 9.85Q15.05 9.32 14.03 9.32L14.03 9.32L14.03 9.32Q12.80 9.46 12.73 10.28L12.73 10.28L12.73 10.28Q12.80 11.09 14.03 11.16L14.03 11.16L14.03 11.16Q15.05 11.16 15.33 10.62ZM20.86 12.67L18.95 12.67L18.95 5.83L20.86 5.83L20.86 12.67ZM18.88 4.20L18.88 4.20L18.88 4.20Q18.88 4.61 19.15 4.88L19.15 4.88L19.15 4.88Q19.43 5.15 19.91 5.15L19.91 5.15L19.91 5.15Q20.38 5.15 20.66 4.88L20.66 4.88L20.66 4.88Q20.93 4.61 20.93 4.20L20.93 4.20L20.93 4.20Q20.93 3.79 20.66 3.51L20.66 3.51L20.66 3.51Q20.38 3.23 19.89 3.23L19.89 3.23L19.89 3.23Q19.43 3.23 19.15 3.51L19.15 3.51L19.15 3.51Q18.88 3.79 18.88 4.20ZM25.60 12.67L25.60 12.67Q24.23 12.67 23.21 11.82L23.21 11.82L23.21 11.82Q22.18 10.96 22.18 9.60L22.18 9.60L22.18 8.91L22.18 8.91Q22.18 7.55 23.21 6.69L23.21 6.69L23.21 6.69Q24.23 5.84 25.61 5.84L25.61 5.84L25.61 5.84Q27.25 5.84 28.33 7L28.33 7L26.97 8.03L26.97 8.03Q26.35 7.41 25.60 7.41L25.60 7.41L25.60 7.41Q24.92 7.41 24.40 7.96L24.40 7.96L24.40 7.96Q23.89 8.50 23.89 9.26L23.89 9.26L23.89 9.26Q23.89 10.01 24.37 10.55L24.37 10.55L24.37 10.55Q24.85 11.10 25.60 11.10L25.60 11.10L25.60 11.10Q26.35 11.10 26.97 10.49L26.97 10.49L28.33 11.51L28.33 11.51Q27.24 12.67 25.60 12.67L25.60 12.67ZM31.62 8.05L31.62 8.05L31.62 12.67L29.70 12.67L29.70 2.42L31.62 2.42L31.62 6.45L31.62 6.45Q32.31 5.84 33.26 5.84L33.26 5.84L33.26 5.84Q34.56 5.84 35.24 6.62L35.24 6.62L35.24 6.62Q35.92 7.41 35.92 8.44L35.92 8.44L35.92 12.67L34.01 12.67L34.01 8.91L34.01 8.91Q34.01 8.23 33.67 7.85L33.67 7.85L33.67 7.85Q33.33 7.48 32.63 7.46L32.63 7.46L32.63 7.46Q32.04 7.50 31.62 8.05ZM41.99 12.67L41.99 12.67Q39.80 12.67 38.33 11.20L38.33 11.20L38.33 11.20Q36.86 9.73 36.86 7.55L36.86 7.55L36.86 7.55Q36.86 5.36 38.33 3.89L38.33 3.89L38.33 3.89Q39.80 2.42 41.99 2.42L41.99 2.42L41.99 2.42Q44.17 2.42 45.64 3.89L45.64 3.89L45.64 3.89Q47.11 5.36 47.11 7.55L47.11 7.55L47.11 7.55Q47.11 9.73 45.64 11.20L45.64 11.20L45.64 11.20Q44.17 12.67 41.99 12.67L41.99 12.67ZM41.99 10.76L41.99 10.76L41.99 10.76Q43.35 10.76 44.21 9.84L44.21 9.84L44.21 9.84Q45.06 8.91 45.06 7.55L45.06 7.55L45.06 7.55Q45.06 6.18 44.21 5.26L44.21 5.26L44.21 5.26Q43.35 4.33 41.98 4.33L41.98 4.33L41.98 4.33Q40.62 4.33 39.76 5.26L39.76 5.26L39.76 5.26Q38.91 6.18 38.91 7.55L38.91 7.55L38.91 7.55Q38.91 8.91 39.76 9.84L39.76 9.84L39.76 9.84Q40.62 10.76 41.99 10.76ZM52.72 10.31L52.72 10.31L52.72 5.84L54.63 5.84L54.63 12.13L54.63 12.13Q54.63 13.56 53.74 14.53L53.74 14.53L53.74 14.53Q52.86 15.49 51.63 15.54L51.63 15.54L51.21 15.59L51.21 15.59Q49.78 15.54 48.62 14.45L48.62 14.45L49.51 13.43L49.51 13.43Q50.33 14.04 51.06 14.11L51.06 14.11L51.06 14.11Q51.95 14.11 52.33 13.67L52.33 13.67L52.33 13.67Q52.72 13.22 52.72 12.40L52.72 12.40L52.72 12.05L52.72 12.05Q51.99 12.67 51.04 12.67L51.04 12.67L51.04 12.67Q49.75 12.67 49.06 11.89L49.06 11.89L49.06 11.89Q48.38 11.10 48.38 10.08L48.38 10.08L48.38 5.84L50.29 5.84L50.29 9.60L50.29 9.60Q50.29 10.28 50.63 10.66L50.63 10.66L50.63 10.66Q50.98 11.03 51.67 11.05L51.67 11.05L51.67 11.05Q52.27 11.01 52.72 10.31ZM55.83 9.26L55.83 9.26L55.83 9.26Q55.83 7.75 56.79 6.79L56.79 6.79L56.79 6.79Q57.74 5.84 59.25 5.84L59.25 5.84L59.25 5.84Q60.75 5.84 61.64 6.79L61.64 6.79L61.64 6.79Q62.53 7.75 62.53 9.26L62.53 9.26L62.53 9.94L57.81 9.94L57.81 9.94Q57.88 10.49 58.29 10.79L58.29 10.79L58.29 10.79Q58.70 11.10 59.25 11.10L59.25 11.10L59.25 11.10Q60.20 11.10 60.96 10.55L60.96 10.55L62.05 11.65L62.05 11.65Q61.30 12.67 59.25 12.67L59.25 12.67L59.25 12.67Q57.74 12.67 56.79 11.72L56.79 11.72L56.79 11.72Q55.83 10.76 55.83 9.26ZM60.61 8.57L60.61 8.57Q60.61 8.03 60.20 7.72L60.20 7.72L60.20 7.72Q59.79 7.41 59.25 7.41L59.25 7.41L59.25 7.41Q58.70 7.41 58.29 7.72L58.29 7.72L58.29 7.72Q57.88 8.03 57.88 8.57L57.88 8.57L60.61 8.57Z"></path></g><defs data-v-fde0c5aa=""><linearGradient data-v-fde0c5aa="" gradientTransform="rotate(25)" id="29e7f2da-90d1-4a24-b95a-14ca0a268c59" x1="0%" y1="0%" x2="100%" y2="0%"><stop data-v-fde0c5aa="" offset="0%" stop-color="#410FF8" stop-opacity="1"></stop><stop data-v-fde0c5aa="" offset="100%" stop-color="#410FF8" stop-opacity="1"></stop></linearGradient></defs><g data-v-fde0c5aa="" id="d34c81b7-de8c-4780-b609-61a4012dc29d" stroke="none" fill="url(#29e7f2da-90d1-4a24-b95a-14ca0a268c59)" transform="matrix(0.8738952656517016,0,0,0.8738952656517016,35.63052367174149,121.18155520121206)"><path d="M24 18H12a1 1 0 0 0-1 1v7.723L5.855 35.3A6 6 0 0 0 5 38.385V45.1a32.65 32.65 0 0 0 .975 7.917L6 62h2v-9a.984.984 0 0 0-.03-.242l-.055-.221A30.688 30.688 0 0 1 7 45.1v-6.715a4 4 0 0 1 .57-2.058L11 30.61V39a1 1 0 0 0 1.707.707l5.5-5.5a1.1 1.1 0 0 1 .593-.288h.009a1.108 1.108 0 0 1 .984 1.876l-4.5 4.5a1 1 0 0 0 .26 1.6A6.2 6.2 0 0 1 19 47.472a5.5 5.5 0 0 1-.578 2.447l-1.317 2.634A1 1 0 0 0 17 53v9h2v-8.764l1.211-2.423A7.508 7.508 0 0 0 21 47.472 8.188 8.188 0 0 0 18.918 42H24a1 1 0 0 0 1-1V19a1 1 0 0 0-1-1zm-1 2.722a2.015 2.015 0 0 1-.722-.722H23zM13.722 20a2.015 2.015 0 0 1-.722.722V20zM18.5 31.928a2.59 2.59 0 0 0-.213.043 2 2 0 1 1 .213-.043zm2.7 5.279a3.119 3.119 0 0 0 0-4.414c-.065-.065-.141-.113-.21-.172a4 4 0 1 0-4.905.873L13 36.586V22.858A4 4 0 0 0 15.858 20h4.284A4 4 0 0 0 23 22.858v14.284A4 4 0 0 0 20.142 40h-1.728zM22.278 40a2.015 2.015 0 0 1 .722-.722V40zM59.17 12.934l-.033-8.98h-2v8.968a.931.931 0 0 0 .03.241l.062.252a30.888 30.888 0 0 1 .908 7.434v6.685a4.042 4.042 0 0 1-.568 2.064l-3.432 5.766v-8.379a1 1 0 0 0-1.71-.7L46.9 31.85a1.08 1.08 0 0 1-1.58-.049 1.117 1.117 0 0 1 0-1.568l4.524-4.56a1 1 0 0 0-.26-1.6 6.274 6.274 0 0 1-3.45-5.656 5.493 5.493 0 0 1 .569-2.43l1.327-2.674a1 1 0 0 0 .1-.444V3.954h-2v8.684L45.461 14H29a1 1 0 0 0-1 1v25c0 .017.009.031.01.047a.946.946 0 0 0 .053.264c.01.031.013.064.026.094a1 1 0 0 0 .2.3c.017.018.041.027.059.044a1.019 1.019 0 0 0 .205.15l.658.329a1.426 1.426 0 0 1 0 2.552l-.658.329A1 1 0 0 0 29 46h21.5a3.5 3.5 0 0 0 3.5-3.5v-2.995l5.288-8.884a6.043 6.043 0 0 0 .849-3.087v-6.685a32.893 32.893 0 0 0-.967-7.915zM48 33.52V35H34v-6h9.761A3.117 3.117 0 0 0 48 33.52zM30 16h14.547a7.546 7.546 0 0 0-.385 2H33v2h11.3a8.313 8.313 0 0 0 .641 2H33v2h13.262a8.24 8.24 0 0 0 1.275 1.161L45.713 27H33a1 1 0 0 0-1 1v8a1 1 0 0 0 1 1h16a1 1 0 0 0 1-1v-4.433l2-2.016v9.787c-.021-.01-.046-.014-.067-.024a3.526 3.526 0 0 0-.454-.157c-.079-.024-.154-.056-.235-.073A3.441 3.441 0 0 0 50.5 39H30zm20.5 28H31.658a3.46 3.46 0 0 0 0-3H50.5a1.5 1.5 0 0 1 0 3z"></path></g><!----></svg>